<svg width="495" height="143" viewBox="0 0 495 143" fill="none" xmlns="http://www.w3.org/2000/svg">
<path d="M76.285 141.739C73.7603 142.119 70.6799 142.13 65.2123 141.783L62.1045 141.591L60.9439 135.425C60.3058 132.036 59.7887 128.846 59.7887 128.34C59.7942 127.421 59.4257 127.234 56.2188 126.525C55.3112 126.327 52.4124 125.293 49.7776 124.231L44.9866 122.3L39.9481 127.57C37.1813 130.469 34.6785 132.839 34.3925 132.839C32.8633 132.839 21.8401 123.483 21.8401 122.19C21.8401 121.607 23.2318 118.483 24.9369 115.243L28.0338 109.346L25.6245 106.332C24.2989 104.671 22.2911 101.8 21.1635 99.9459L19.1173 96.5851L16.763 97.6191C13.8477 98.9063 4.80474 100.639 4.25468 100.017C4.03466 99.7644 3.04455 96.4695 2.05444 92.6851C1.06433 88.9007 0.145734 85.4298 0.0137201 84.9678C-0.162299 84.3572 1.33936 83.3396 5.44281 81.2989C8.56165 79.7477 11.4605 78.3781 11.884 78.2626C12.4836 78.103 12.6761 76.3978 12.7806 70.3747L12.9181 62.6958L8.71567 60.6496C2.13695 57.4483 0.965324 56.7167 0.965324 55.8311C0.965324 54.9455 2.80802 49.2854 4.76624 44.1423C5.88286 41.205 6.09188 40.9795 7.71456 40.9905C10.2393 41.0015 16.5265 42.4151 18.4077 43.3887L20.0249 44.2248L22.2526 40.8145C23.4793 38.9388 25.597 36.0399 26.9557 34.3678L29.4254 31.3314L26.1746 25.5668C24.3814 22.3985 22.9842 19.3841 23.0667 18.8726C23.2428 17.7724 35.3936 9.07599 36.7577 9.07599C37.2748 9.07599 37.7808 9.29601 37.8853 9.57104C37.9844 9.84057 39.9096 12.1783 42.1648 14.7581C45.8392 18.9716 46.3728 19.3841 47.3904 18.8341C48.012 18.493 51.1088 17.5414 54.2716 16.7218L60.0198 15.2312L61.0649 7.89336C61.6369 3.85592 62.198 0.451053 62.3135 0.330039C62.429 0.214527 66.2959 0.088013 70.9054 0.0550094L79.2884 0L80.0529 7.15078C80.471 11.0837 80.9825 14.4886 81.1971 14.7141C81.4061 14.9451 83.0508 15.5117 84.8495 15.9792C86.6482 16.4468 89.448 17.4314 91.0651 18.174L94.008 19.5161L99.5471 14.2961C102.589 11.4247 105.279 9.07599 105.521 9.07599C106.049 9.07599 116.478 17.4094 117.518 18.6635C118.145 19.4171 117.727 20.4457 114.558 25.9353L110.867 32.3325L113.029 34.5933C114.217 35.8364 116.109 38.3997 117.237 40.2919C119.465 44.0378 119.905 44.2193 124.426 43.2182C125.636 42.9487 128.156 42.5581 130.026 42.3546C133.359 41.9861 133.436 42.0081 134.217 43.5428C135.846 46.7276 139.074 57.0797 138.596 57.5583C138.326 57.8278 135.526 59.3845 132.369 61.0237C129.212 62.6573 126.687 64.1425 126.764 64.313C126.841 64.489 126.918 67.6629 126.935 71.3703L126.962 78.1085L132.996 80.9853C136.17 82.498 137.82 83.0371 138.381 84.1372C138.937 85.2263 138.42 86.871 137.259 90.5674C137.017 91.3265 136.748 92.1736 136.462 93.1252C135.411 96.541 134.25 99.4564 133.876 99.5994C133.502 99.7424 130.235 99.3518 126.61 98.7248C120.488 97.6741 119.987 97.6576 119.476 98.5157C117.171 102.366 113.733 107.394 112.969 108.015C112.462 108.433 112.05 109 112.05 109.275C112.05 109.55 113.799 112.278 115.939 115.337L119.833 120.892L117.176 123.62C113.926 126.97 107.385 132.289 106.527 132.289C105.966 132.289 103.265 129.919 97.2588 124.132L95.3556 122.306L90.9111 123.978C88.4689 124.897 85.416 125.947 84.1234 126.31C82.5062 126.767 81.6866 127.328 81.4996 128.114C81.3511 128.747 80.6745 131.987 79.9924 135.315L78.7493 141.365L76.285 141.739ZM64.3047 116.833C72.1651 118.026 81.9121 116.277 90.3226 112.157C101.984 106.442 110.185 96.464 113.783 83.6091C115.29 78.224 115.576 65.7707 114.305 60.7816C108.898 39.5823 91.4557 25.9023 69.9703 26.0068C62.4015 26.0453 56.9449 27.1895 51.1638 29.9508C40.8887 34.8463 32.2252 43.5758 27.9513 53.3228C23.6718 63.0919 23.0942 74.0546 26.3231 84.4342C31.5157 101.118 46.8293 114.181 64.3047 116.833ZM251.765 61.3977C251.765 62.0798 235.412 62.0138 234.988 61.3317C234.785 61.0017 235.45 60.7816 236.644 60.7816C236.826 60.7816 237.002 60.7816 237.172 60.7871C238.184 60.7926 238.91 60.7981 239.433 60.4736C240.769 59.6485 240.769 56.6507 240.764 45.9685C240.764 45.2699 240.764 44.5439 240.764 43.7793V42.6792C240.764 30.6053 240.764 27.921 239.499 27.0245C239.097 26.7384 238.569 26.6339 237.876 26.4689C237.046 26.2709 236.363 25.8803 236.363 25.6053C236.363 24.8022 254.389 25.5448 257.326 26.4689C260.715 27.5305 263.316 30.6988 263.316 33.7572C263.316 36.2435 261.507 40.4569 259.411 42.8332L257.15 45.402L259.241 48.0037C263.85 53.7354 267.887 58.0478 269.697 59.1645C272.211 60.7211 275.22 60.2756 275.995 58.2404C276.6 56.6342 276.699 28.3501 276.094 27.4425C275.874 27.1125 274.763 26.6669 273.63 26.4579C270.555 25.8913 270.99 24.7967 274.12 25.2257C275.522 25.4183 279.004 25.5778 281.853 25.5778C285.011 25.5778 286.909 25.7813 286.711 26.1058C286.529 26.3919 286.072 26.5129 285.698 26.3644C285.319 26.2214 284.527 26.4579 283.927 26.8979C282.893 27.6515 282.844 28.3996 282.844 42.8387C282.844 43.2787 282.844 43.7078 282.844 44.1203C282.844 55.1875 282.838 58.4934 284.351 59.478C284.994 59.9015 285.913 59.896 287.228 59.896C287.343 59.896 287.459 59.8905 287.58 59.8905C289.813 59.8905 290.621 59.643 291.369 58.7189C292.261 57.6188 294.323 52.9323 302.706 33.0036C304.609 28.4656 306.496 24.6812 306.892 24.5987C307.607 24.4502 308.96 27.4315 316.656 46.15C321.562 58.0808 322.987 60.2316 326.018 60.2316C326.661 60.2316 327.035 60.4791 326.848 60.7816C326.65 61.1007 323.697 61.3317 319.857 61.3317C313.443 61.3317 313.234 61.2932 314.114 60.3251C315.33 58.9774 315.237 57.9378 313.443 53.0808L311.92 48.9553L300.308 48.6418L298.586 52.9268C296.7 57.6133 296.546 58.5869 297.519 59.5605C297.877 59.918 297.981 60.4021 297.75 60.6331C297.519 60.8641 290.137 61.1172 281.342 61.1887C266.177 61.3152 265.269 61.2657 263.575 60.2206C261.721 59.0765 258.668 55.6551 254.603 50.1655L252.238 46.9751L249.389 47.1402L246.54 47.3052L246.617 52.3932C246.699 58.1964 247.508 60.0666 250.142 60.5946C251.034 60.7706 251.765 61.1337 251.765 61.3977ZM486.091 62.4318C486.091 63.1964 485.15 63.0974 481.965 61.9918C477.328 60.3801 468.94 54.9785 461.525 48.8233C457.642 45.6 452.345 41.1995 449.754 39.0488C438.192 29.4392 421.409 19.7857 411.833 17.2444C404.995 15.4237 392.278 15.4182 384.929 17.2279C375.683 19.5051 368.735 23.7406 360 32.4315C357.102 35.3194 354.852 37.6791 355 37.6791C355.149 37.6791 354.478 38.6802 353.504 39.9068C350.726 43.4107 350.908 41.9696 353.856 37.0851C359.428 27.855 368.95 19.3676 378.356 15.2422C386.271 11.7713 389.891 11.0452 399.181 11.0672C408.268 11.0892 413.659 12.0848 422.35 15.3357C431.371 18.7185 444.704 27.14 456.437 36.865C473.219 50.7815 480.794 56.4857 486.459 59.4615C489.996 61.3152 490.271 61.8818 487.647 61.8818C486.795 61.8818 486.091 62.1293 486.091 62.4318ZM394.165 111.987C393.202 112.603 388.439 112.542 386.194 111.893C383.73 111.178 380.391 107.982 376.178 102.311C372.646 97.5586 372.41 97.3551 370.166 97.1901L367.828 97.0251V102.707C367.828 109.022 368.51 110.837 370.886 110.837C371.623 110.837 372.228 111.085 372.228 111.387C372.228 111.723 369.66 111.937 365.628 111.937C359.615 111.937 357.316 111.415 360.121 110.678C362.036 110.177 362.327 107.938 362.327 93.5982C362.327 78.5266 362.096 77.2834 359.302 77.2834C358.581 77.2834 357.861 77.0744 357.701 76.8159C357.547 76.5629 360.958 76.1888 365.292 75.9963C374.082 75.5947 376.761 76.0678 380.105 78.6201C382.267 80.2703 383.23 82.432 383.23 85.6444C383.23 88.3451 382.063 90.6829 379.269 93.5817L377.08 95.8535L382.19 101.772C387.652 108.103 390.534 110.54 393.235 111.134C394.484 111.409 394.726 111.635 394.165 111.987ZM298.795 111.904C295.467 111.932 292.217 112.097 291.568 112.267C290.924 112.443 290.225 112.317 290.022 111.987C289.802 111.629 290.11 111.387 290.775 111.387C291.391 111.387 292.327 110.733 292.849 109.929C293.674 108.67 293.834 106.613 294.026 94.8743C294.274 79.7642 293.938 77.2834 291.634 77.2834C290.918 77.2834 290.181 77.0359 289.994 76.7334C289.774 76.3758 292.794 76.1833 298.647 76.1833C306.887 76.1833 307.838 76.2878 310.061 77.4209C313.559 79.2086 314.654 80.9743 314.654 84.8248C314.648 88.3892 313.619 90.8919 311.023 93.6257L309.345 95.3969L310.891 97.6246C311.738 98.8513 314.819 102.328 317.728 105.348C322.602 110.403 323.19 110.837 325.105 110.837C326.353 110.837 327.052 111.057 326.848 111.387C326.238 112.377 319.56 112.031 317.327 110.887C315.094 109.748 311.848 106.459 307.64 101.074C305.005 97.6962 304.912 97.6357 302.288 97.6357H299.62L299.642 102.724C299.664 108.593 300.302 110.21 303.003 111.184C304.653 111.783 304.219 111.86 298.795 111.904ZM179.685 49.2524C176.363 56.0071 173.552 61.6232 173.437 61.7387C172.947 62.2283 170.516 57.9268 165.824 48.2788C161.522 39.4393 160.752 38.1742 160.4 39.3403C160.175 40.0939 159.57 44.7749 159.064 49.7474C158.178 58.4054 158.183 58.8179 159.13 59.511C159.669 59.907 160.747 60.2371 161.522 60.2426C162.353 60.2426 162.666 60.4186 162.287 60.6606C161.594 61.1007 150.637 61.0512 150.191 60.6056C150.048 60.4571 150.686 60.1711 151.621 59.962C152.551 59.7585 153.568 59.1205 153.877 58.5374C154.185 57.9598 155.043 52.9378 155.78 47.3712C157.611 33.5097 158.833 25.4293 159.174 24.8792C160.043 23.4711 161.704 25.9793 167.661 37.6736C171.286 44.7749 174.476 50.8201 174.751 51.0951C175.054 51.3976 176.143 49.6539 177.507 46.7001C182.056 36.81 188.42 24.7472 189.168 24.5987C189.768 24.4722 190.092 26.0343 190.643 31.7495C192.958 55.6771 193.316 57.8883 195.186 59.7585C195.797 60.3691 196.138 61.0402 195.934 61.2382C195.395 61.7827 186.759 61.8433 185.483 61.3152C184.427 60.8806 184.432 60.8586 185.598 60.8201C187.562 60.7596 188.129 58.9444 187.733 53.9609C187.007 44.8079 186.143 36.5625 185.934 36.766C185.818 36.887 183.002 42.5031 179.685 49.2524ZM214.988 111.25C214.944 111.932 214.614 112.487 214.251 112.487C213.888 112.487 207.705 106.547 200.522 99.2858C193.332 92.025 187.254 86.0844 187.018 86.0844C186.572 86.0844 186.693 106.86 187.15 109.005C187.326 109.808 188.162 110.463 189.746 111.024L192.084 111.849L186.088 111.893L180.098 111.937L181.55 110.59C182.997 109.247 183.008 109.176 183.008 101.327C183.008 96.9701 183.173 89.2857 183.371 84.2472C183.695 75.9358 183.822 75.0832 184.718 75.0832C185.257 75.0832 185.901 75.4352 186.143 75.8643C186.803 77.0359 211.138 102.586 211.589 102.586C212.007 102.586 211.737 80.6388 211.297 78.5211C211.099 77.5805 210.654 77.2834 209.433 77.2834C208.547 77.2834 207.672 77.0359 207.485 76.7334C207.265 76.3813 209.257 76.1833 213.063 76.1833C216.605 76.1833 218.773 76.3813 218.459 76.6784C218.173 76.9534 217.441 77.2669 216.836 77.3769C215.775 77.564 215.725 78.136 215.401 93.7907C215.219 102.713 215.032 110.568 214.988 111.25ZM206.627 61.3647C205.549 62.0468 198.008 62.0193 197.584 61.3317C197.397 61.0292 197.738 60.7816 198.338 60.7816C200.808 60.7816 203.514 55.4295 212.898 31.9475C214.46 28.0366 216.017 24.7472 216.352 24.6372C216.93 24.4447 219.29 29.5987 223.08 39.3293C223.965 41.5955 225.956 46.3536 227.502 49.9014C229.048 53.4438 230.313 56.4912 230.313 56.6672C230.313 56.8432 230.929 57.8938 231.677 58.9994C233.399 61.5352 232.948 61.8598 227.7 61.8708C224.059 61.8818 222.832 61.3922 224.262 60.5066C225.186 59.9345 224.895 58.4604 222.887 53.6309C221.831 51.0841 220.962 48.9278 220.962 48.8398C220.962 48.7518 218.492 48.6803 215.472 48.6803H209.983L208.921 50.7595C208.338 51.9037 207.447 54.2634 206.941 56.0126C206.187 58.5924 206.149 59.3405 206.715 60.0225C207.287 60.7101 207.271 60.9577 206.627 61.3647ZM341.15 111.387C340.759 112.02 328.763 112.157 328.79 111.525C328.801 111.299 329.17 110.634 329.615 110.045C330.281 109.165 330.424 106.321 330.424 94.0383C330.424 80.2703 330.347 79.0326 329.417 78.191C328.867 77.6905 328.014 77.2834 327.525 77.2834C327.035 77.2834 326.502 77.0634 326.337 76.7994C325.869 76.0403 340.176 75.4902 343.488 76.1393C348.807 77.1844 350.583 78.6531 351.882 83.0811C353.735 89.4287 347.619 95.9855 339.841 95.9855C337.261 95.9855 337.294 95.0009 339.89 94.3023C344.956 92.9381 346.662 90.4189 346.265 84.9018C346.045 81.9314 345.803 81.3264 344.236 79.9237C342.641 78.5046 342.113 78.3506 339.324 78.4936L336.199 78.6586L336.051 93.4552C335.886 110.265 336.001 110.837 339.544 110.837C340.699 110.837 341.353 111.063 341.15 111.387ZM465.535 111.794C464.704 112.322 444.253 112.328 443.929 111.8C443.786 111.574 443.934 111.387 444.253 111.387C444.572 111.387 445.331 110.892 445.936 110.287C446.981 109.242 447.036 108.455 447.036 94.3078V79.4287L445.579 78.081L444.127 76.7334H465.551L465.331 79.8962C465.001 84.5937 464.666 85.0503 463.61 82.234L462.686 79.7587L457.543 79.5992C452.416 79.4397 452.4 79.4452 452.735 80.6993C452.922 81.3924 453.076 84.3737 453.082 87.322L453.087 92.6851H457.515C461.855 92.6851 461.96 92.6521 462.878 91.0404C464.154 88.7907 464.803 88.9667 464.391 91.4475C464.198 92.5806 464.022 94.6873 463.995 96.123C463.945 98.9338 463.318 99.5774 462.768 97.3826C462.356 95.7324 459.292 94.7423 455.397 94.9954L452.812 95.1604L452.862 101.343C452.922 109.225 453.274 109.737 458.599 109.737C461.586 109.737 462.587 109.5 463.852 108.51C464.71 107.834 465.221 107.586 464.99 107.96C464.715 108.406 464.935 108.637 465.628 108.637C466.459 108.637 466.63 108.928 466.421 110.018C466.278 110.782 465.876 111.58 465.535 111.794ZM173.382 111.844C172.98 112.245 151.176 112.366 150.774 111.97C150.637 111.838 151.335 111.464 152.331 111.145C153.965 110.617 154.163 110.309 154.493 107.812C154.696 106.299 154.878 99.1978 154.905 92.036C154.96 77.696 154.867 77.2834 151.616 77.2834C150.73 77.2834 150.004 77.0359 150.004 76.7334C150.004 76.3868 154.223 76.1833 161.555 76.1833H173.107V77.7675C173.107 80.1162 172.485 82.784 171.94 82.784C171.671 82.784 171.456 82.2945 171.456 81.6949C171.456 79.7477 169.234 78.8676 164.779 79.0436L160.73 79.2086L160.417 91.585L162.226 91.6675C163.888 91.7445 163.91 91.7665 162.518 91.981C160.626 92.2671 160.521 93.2352 162.38 93.2352C163.14 93.2352 163.756 93.4827 163.756 93.7852C163.756 94.0878 163.14 94.3353 162.38 94.3353H161.005V100.6C161.005 108.741 161.352 109.258 166.847 109.346C170.065 109.396 170.994 109.198 172.26 108.202C173.101 107.542 173.981 107.119 174.212 107.267C174.669 107.548 174.003 111.228 173.382 111.844ZM244.818 111.046C247.04 111.833 246.93 111.849 240.076 111.893C235.736 111.921 233.063 111.728 233.063 111.387C233.063 111.085 233.509 110.837 234.053 110.837C236.259 110.837 236.363 110.084 236.363 94.5003V79.4837H232.007C226.726 79.4837 226.116 79.6927 224.977 81.8874C223.74 84.2747 223.432 82.8665 224.323 78.8621L225.054 75.5783L226.996 75.8808C228.063 76.0458 234.169 76.2438 240.566 76.3208C250.99 76.4418 252.304 76.3593 253.261 75.4957C253.85 74.9622 254.482 74.6816 254.664 74.8632C254.989 75.1932 254.702 79.5882 254.191 82.1185C253.894 83.5761 252.865 83.2296 252.865 81.6729C252.865 80.0557 251.144 79.4837 246.303 79.4837H241.864V93.1692C241.864 100.694 242.018 107.614 242.205 108.543C242.475 109.913 242.975 110.392 244.818 111.046ZM429.82 111.591C426.508 112.768 423.571 112.949 419.929 112.19C418.175 111.827 416.618 111.404 416.464 111.25C415.953 110.744 416.888 108.087 417.449 108.433C417.79 108.642 417.861 108.329 417.63 107.608C417.113 105.969 417.641 106.145 419.495 108.224C420.969 109.874 421.354 110.012 424.484 110.012C427.619 110.012 427.993 109.874 429.479 108.213C430.722 106.822 431.085 105.887 431.085 104.066C431.085 102.058 430.777 101.415 429.022 99.7424C427.889 98.6588 425.601 96.9206 423.934 95.87C417.955 92.102 415.336 87.5531 416.492 82.9271C417.058 80.6553 419.44 77.817 421.514 76.9479C423.598 76.0788 431.932 75.9028 434 76.6894C435.265 77.1734 435.309 77.3439 434.88 80.0612C434.314 83.6476 434 83.9722 433.23 81.7554C432.449 79.5167 430.249 78.3836 426.684 78.3836C423.213 78.3836 421.184 80.0502 421.184 82.8941C421.189 85.8534 422.922 87.9381 427.795 90.8314C430.276 92.3056 433.125 94.4178 434.127 95.5289C438.654 100.534 436.31 109.28 429.82 111.591ZM282.062 111.343C281.116 112.289 280.324 112.465 277.48 112.366C275.588 112.306 271.078 112.174 267.458 112.075L260.869 111.899L262.508 110.595L264.142 109.291L264.312 94.6158C264.461 81.959 264.362 79.7587 263.613 78.6146C263.08 77.8005 262.211 77.2834 261.38 77.2834C260.627 77.2834 260.016 77.0359 260.016 76.7334C260.016 76.3868 264.004 76.1833 270.88 76.1833H281.743L281.556 79.2086C281.364 82.2615 280.737 83.1581 280.209 81.1394C279.818 79.6487 277.657 78.9336 273.531 78.9336H270.06L269.719 80.9963C269.532 82.1295 269.378 85.0008 269.373 87.3716C269.367 91.2275 269.483 91.717 270.467 91.9756C271.072 92.1351 271.567 92.6081 271.567 93.0262C271.567 93.5817 272.381 93.7852 274.593 93.7852C276.259 93.7852 277.618 93.9723 277.618 94.1978C277.618 94.4233 275.726 94.5278 273.41 94.4288L269.197 94.2418L269.521 100.749C269.824 106.899 269.917 107.317 271.287 108.494C273.46 110.37 278.548 110.271 280.874 108.312C282.123 107.267 282.569 107.108 282.569 107.718C282.569 108.175 282.712 108.917 282.888 109.374C283.058 109.831 282.69 110.716 282.062 111.343ZM486.355 112.421C482.246 113.565 476.668 112.828 474.259 110.832C473.252 109.995 473.219 107.053 474.198 105.76C474.859 104.891 475.035 104.99 476.245 106.86C476.971 107.988 478.434 109.33 479.49 109.841C480.546 110.348 481.811 111.162 482.301 111.64C482.79 112.13 483.582 112.361 484.088 112.168C485.161 111.756 485.26 111.052 484.303 110.612C483.923 110.441 484.232 110.452 484.991 110.634C485.75 110.821 486.195 110.793 485.986 110.573C485.783 110.353 486.278 109.599 487.086 108.901C488.274 107.883 488.566 107.157 488.566 105.221C488.566 102.102 487.526 100.589 482.763 96.7886C476.564 91.8435 474.033 87.4265 474.859 83.0095C475.315 80.5728 477.499 77.9215 479.859 76.9314C482.185 75.9633 483.021 76.0403 480.865 77.0304L479.215 77.784L483.505 77.8335L481.635 79.0876C480.238 80.0283 479.721 80.8093 479.589 82.19C479.27 85.4628 479.919 86.5354 484.039 89.5883C490.717 94.5278 492.724 96.9756 493.467 101.068C494.314 105.744 490.92 111.156 486.355 112.421ZM409.082 111.981C407.559 112.174 398.367 112.212 397.086 112.031L395.815 111.849L397.223 110.546L398.631 109.242V94.4343C398.631 80.2923 398.582 79.5662 397.493 78.18L396.348 76.7334H401.343C406.283 76.7334 407.102 77.0579 405.507 78.3836C404.814 78.9611 404.682 81.3319 404.687 93.4387C404.698 109.374 404.841 110.133 407.999 111.217C409.049 111.58 409.539 111.921 409.082 111.981ZM247.227 44.2358C248.619 45.0444 251.507 44.9509 253.729 44.0213C256.353 42.9267 258.047 39.1973 257.678 35.3414C257.469 33.1356 257.04 32.25 255.434 30.6384C253.641 28.8452 253.113 28.6361 249.856 28.4271L246.265 28.2016V35.9354C246.265 42.7287 246.38 43.7463 247.227 44.2358ZM300.633 95.0669C305.341 96.3155 308.542 94.3683 309.516 89.6763C310.897 83.0316 307.288 78.0095 301.48 78.4826C299.373 78.6586 299.345 78.6916 299.158 81.1339C299.059 82.4925 299.142 86.1339 299.351 89.2142C299.653 93.7742 299.895 94.8689 300.633 95.0669ZM368.581 94.4618C368.922 94.6873 370.1 94.8743 371.194 94.8743C378.262 94.9073 380.314 82.5365 373.796 79.1646C372.866 78.6861 371.178 78.3946 369.858 78.4936L367.553 78.6586L367.756 86.3594C367.888 91.244 368.191 94.2088 368.581 94.4618ZM301.271 45.3525C301.271 46.073 309.874 46.1445 310.319 45.424C310.748 44.7364 306.595 34.0817 305.946 34.2027C305.666 34.2522 304.901 35.8694 304.252 37.7891C303.608 39.7143 302.668 42.0686 302.173 43.0312C301.678 43.9883 301.271 45.0334 301.271 45.3525ZM211.061 45.6935C211.061 46.117 219.24 45.941 219.482 45.5175C219.768 45.0059 215.868 34.3898 215.39 34.3843C215.104 34.3788 211.061 44.9454 211.061 45.6935ZM490.541 80.9908C491.294 82.9655 490.948 82.9436 489.661 80.9358C489.056 79.9842 488.016 78.9721 487.356 78.6806C486.696 78.389 486.041 77.707 485.904 77.1679C485.689 76.3648 485.986 76.1833 487.482 76.1833C488.495 76.1833 489.952 76.4253 490.728 76.7224C491.96 77.1899 492.13 77.553 492.064 79.6102L491.987 81.9589L491.652 79.8137C491.294 77.5309 489.732 76.3758 488.417 77.4265C487.867 77.8665 487.966 78.1635 488.863 78.7906C489.496 79.2306 490.249 80.2207 490.541 80.9908ZM281.067 94.4728C280.902 96.5135 280.599 98.1857 280.396 98.1857C280.06 98.1857 278.168 94.6653 278.168 94.0437C278.168 93.9007 278.553 93.7852 279.026 93.7852C279.499 93.7852 279.741 93.5597 279.571 93.2847C279.4 93.0042 279.571 92.6521 279.95 92.4981C280.33 92.3496 280.154 92.2011 279.56 92.1791C278.542 92.1406 278.553 92.0801 279.73 91.255C280.423 90.7709 281.072 90.4574 281.177 90.5674C281.281 90.6719 281.232 92.4321 281.067 94.4728ZM77.9187 65.6442C78.8923 67.5144 78.3588 67.5914 77.2916 65.7322C76.7966 64.8631 75.3114 63.6034 74.0023 62.9269C72.6931 62.2558 71.9286 61.6012 72.3026 61.4747C73.6558 61.0127 76.6811 62.4923 78.7823 64.643C81.0376 66.9533 80.8945 67.7069 78.5953 65.5947L77.2476 64.357L77.9187 65.6442Z" fill="#F2F2F2"/>
<path d="M75.284 88.6092C70.0529 89.6158 67.7757 89.5222 60.8284 87.9986C53.9747 86.5024 45.9328 82.0799 40.7292 76.9479C38.8205 75.0667 37.8689 74.5331 36.4442 74.5331C35.4376 74.5331 34.068 74.0931 33.4079 73.554L32.1978 72.5804L35.0416 70.7377C36.6093 69.7201 39.002 67.9269 40.3662 66.7443C45.1792 62.5803 52.6215 58.6804 58.9692 56.9972C72.0716 53.5208 86.1477 56.4526 98.0125 65.1271C101.731 67.8444 101.962 67.9324 105.576 67.9324C107.622 67.9324 109.3 68.1359 109.3 68.3889C109.3 69.5936 103.711 73.4275 101.945 73.433C101.379 73.433 99.2886 74.9567 97.2974 76.8159C90.2951 83.3671 83.4414 87.036 75.284 88.6092ZM63.0947 86.4749C70.416 88.1471 80.9166 86.1229 87.7318 81.7169C91.2797 79.4231 98.8486 72.4099 98.8486 71.4143C98.8486 69.3021 84.0244 60.9741 78.0563 59.7365C73.8978 58.8729 66.6205 58.9884 62.8306 59.9785C56.0484 61.7442 47.528 66.1062 42.4509 70.4077L40.2672 72.2559L43.2925 75.3582C48.5786 80.7708 55.7294 84.7862 63.0947 86.4749ZM77.9188 65.6441L77.2477 64.357L78.5953 65.5946C79.591 66.5077 80.185 66.8873 80.35 66.8323C80.8451 67.6464 81.2466 68.5045 81.5162 69.3626C83.3699 75.2647 81.3236 80.4683 75.9606 83.4606C70.0364 86.7609 61.879 84.8082 58.4521 79.2636C55.6358 74.7146 55.8504 68.2019 58.9197 64.698C60.6744 62.6958 65.1849 60.7926 68.1827 60.7871C71.0485 60.7816 71.6701 61.5462 69.2828 62.1403C66.8901 62.7398 64.2388 64.599 63.3587 66.3097C62.0275 68.8785 62.3081 72.5144 63.9913 74.5166C67.2421 78.378 71.6591 79.2526 75.207 76.7223C80.1575 73.202 79.6185 66.0732 74.1729 63.0589C72.1376 61.9368 71.6646 61.3427 72.7427 61.3977C72.5832 61.4032 72.4347 61.4307 72.3027 61.4747C71.9286 61.6012 72.6932 62.2558 74.0023 62.9268C75.3115 63.6034 76.7966 64.8631 77.2917 65.7322C78.3588 67.5914 78.8924 67.5144 77.9188 65.6441ZM163.426 91.8215L163.717 91.8545C165.532 92.0635 168.013 92.069 169.234 91.8655C171.484 91.486 171.787 91.739 171.121 93.4662C170.851 94.1702 169.85 94.3353 165.895 94.3353H162.38C163.14 94.3353 163.756 94.0878 163.756 93.7852C163.756 93.4827 163.14 93.2352 162.38 93.2352C160.521 93.2352 160.626 92.267 162.518 91.981C162.98 91.9095 163.288 91.86 163.426 91.8215ZM275.88 94.4563C276.93 94.4288 277.618 94.3353 277.618 94.1978C277.618 93.9722 276.259 93.7852 274.593 93.7852C272.381 93.7852 271.567 93.5817 271.567 93.0261C271.567 92.6081 271.072 92.1351 270.467 91.9755C270.363 91.948 270.264 91.915 270.176 91.882L273.966 92.0195C277.238 92.146 278.619 91.9645 279.653 91.288C279.785 91.1999 279.917 91.1174 280.049 91.0404C279.945 91.1064 279.84 91.1779 279.73 91.255C278.553 92.08 278.542 92.1405 279.56 92.1791C280.154 92.2011 280.33 92.3495 279.95 92.4981C279.571 92.6521 279.4 93.0041 279.571 93.2847C279.741 93.5597 279.499 93.7852 279.026 93.7852C278.553 93.7852 278.168 93.9007 278.168 94.0437C278.168 94.2858 278.46 94.9788 278.839 95.7324C278.3 94.9788 277.503 94.6158 275.88 94.4563ZM490.541 80.9908C490.249 80.2207 489.496 79.2306 488.863 78.7906C487.966 78.1635 487.867 77.8665 488.418 77.4264C489.732 76.3758 491.294 77.5309 491.652 79.8137L491.987 81.9589L492.064 79.6102C492.092 78.8071 492.081 78.2625 491.987 77.8665C492.114 78.356 492.141 79.0876 492.141 80.2647C492.141 83.3616 491.388 84.7477 490.766 82.7895C490.706 82.586 490.579 82.322 490.409 82.0194C491.052 82.8445 491.118 82.5035 490.541 80.9908ZM487.185 78.5926C486.652 78.4275 485.992 78.3835 485.018 78.3835C483.77 78.3835 482.735 78.5596 481.91 78.9061L483.505 77.8335L479.215 77.784L480.865 77.0304C481.421 76.7719 481.778 76.5793 481.965 76.4473C483.368 76.2548 485.123 76.1723 486.734 76.2053C485.893 76.2768 485.733 76.5243 485.904 77.1679C486.03 77.6629 486.586 78.2735 487.185 78.5926ZM466.492 109.165C466.437 108.763 466.179 108.637 465.629 108.637C464.935 108.637 464.715 108.406 464.99 107.96C465.222 107.586 464.71 107.834 463.852 108.51C463.538 108.758 463.241 108.956 462.922 109.115C463.285 108.917 463.632 108.664 464.028 108.329C465.035 107.482 465.843 106.167 466.058 105.028C466.25 103.989 466.63 103.136 466.899 103.136C467.51 103.136 467.504 103.18 466.8 107.537C466.712 108.103 466.608 108.653 466.492 109.165ZM486.091 62.4318C486.091 62.1293 486.795 61.8817 487.647 61.8817C490.271 61.8817 489.996 61.3152 486.459 59.4615C483.704 58.0148 480.502 55.9246 476.014 52.5637C476.624 53.0148 477.229 53.4548 477.84 53.9004C483.704 58.1413 489.419 61.3207 491.217 61.3482C492.389 61.3647 492.394 61.3867 491.349 62.1733C490.431 62.8718 488.242 63.0864 485.898 62.8388C486.03 62.7618 486.091 62.6243 486.091 62.4318ZM488.528 106.244C488.418 107.454 488.038 108.087 487.086 108.901C486.278 109.599 485.783 110.353 485.986 110.573C486.195 110.793 485.75 110.821 484.991 110.634C484.232 110.452 483.924 110.441 484.303 110.612C485.26 111.052 485.161 111.756 484.089 112.168C483.583 112.361 482.79 112.13 482.301 111.64C481.927 111.272 481.107 110.716 480.271 110.249C480.953 110.463 481.696 110.562 482.515 110.562C485.552 110.562 487.84 108.939 488.506 106.316C488.517 106.294 488.522 106.266 488.528 106.244ZM418.499 107.163C417.465 106.151 417.223 106.316 417.63 107.608C417.861 108.329 417.79 108.642 417.449 108.433C417.042 108.18 416.442 109.5 416.332 110.441C416.288 109.687 416.288 108.488 416.343 107.19L416.508 103.411L417.504 105.408C417.834 106.079 418.164 106.662 418.499 107.163ZM477.262 108.12C476.866 107.702 476.503 107.267 476.245 106.86C475.035 104.99 474.859 104.891 474.198 105.76C473.736 106.365 473.5 107.333 473.483 108.274C473.45 107.74 473.439 107.113 473.439 106.371C473.439 104.286 473.626 102.586 473.852 102.586C474.077 102.592 474.881 103.879 475.64 105.457C476.151 106.525 476.685 107.405 477.262 108.12ZM269.609 91.2384C269.406 90.6444 269.373 89.5388 269.373 87.3715C269.378 85.0008 269.532 82.1294 269.719 80.9963L269.813 80.4353L269.642 81.8214C269.45 83.4111 269.373 86.3154 269.466 88.2846L269.609 91.2384ZM482.966 96.9536C486.333 99.6489 487.774 101.184 488.302 103.026C487.598 101.228 485.887 99.3188 482.966 96.9536ZM420.26 109.022C421.327 109.737 422.636 110.001 424.484 110.012C421.959 110.012 421.222 109.924 420.26 109.022ZM456.437 112.185C450.612 112.262 444.143 112.146 443.929 111.8C444.11 112.097 450.612 112.223 456.437 112.185ZM77.9793 63.8895C76.7251 62.8113 75.2895 61.9807 74.0959 61.6067L74.1344 61.6177C75.394 61.8927 76.7526 62.7343 77.9793 63.8895ZM477.592 112.399C480.255 113.114 483.621 113.18 486.349 112.427C483.61 113.186 480.117 113.164 477.592 112.399ZM281.083 94.2638C281.232 92.3441 281.276 90.7214 281.182 90.5729C281.188 90.5729 281.188 90.5784 281.193 90.5784C281.358 90.7544 281.27 92.4926 281.083 94.2638ZM271.435 94.3408L269.202 94.3353L269.197 94.2418L271.435 94.3408ZM279.301 96.6125C279.752 97.4266 280.203 98.1252 280.374 98.1802C280.368 98.1857 280.363 98.1857 280.357 98.1857C280.137 98.1857 279.664 97.4816 279.301 96.6125ZM160.422 91.475L162.012 91.6565L160.417 91.585L160.422 91.475ZM486.14 91.1834C488.687 93.1472 490.387 94.7533 491.52 96.3485C490.398 94.7863 488.715 93.1967 486.14 91.1834ZM476.3 89.9128C474.881 87.5586 474.43 85.3088 474.859 83.015C474.435 85.2868 474.897 87.5641 476.3 89.9128Z" fill="#FEFEFE"/>
<path d="M80.9715 109.737C77.2256 110.914 66.2024 111.745 63.3696 111.068C53.441 108.681 48.3695 106.035 42.4288 100.127C36.2076 93.9448 33.2208 88.6587 30.9051 79.7587C28.6828 71.2053 29.6289 62.5969 33.6939 54.3185C38.0723 45.3965 43.925 39.5604 52.9185 35.1489C66.9175 28.2841 82.3357 30.1873 95.1466 40.3634C101.94 45.7595 105.944 52.4758 108.469 62.7069C109.74 67.8279 109.91 69.4341 109.613 73.158C108.634 85.2648 104.168 94.3848 95.6801 101.618C91.3677 105.287 86.4006 108.032 80.9715 109.737ZM61.4004 102.68C66.0484 103.89 73.5402 103.95 77.4346 102.806C82.2807 101.382 87.6162 98.2738 91.6922 94.5059C95.8341 90.6664 98.1609 87.0855 99.8386 81.959C100.889 78.7356 101.736 73.9831 101.252 73.9831C101.12 73.9831 99.1015 75.5618 96.7692 77.487C95.6911 78.3726 94.6735 79.1922 93.6889 79.9458C94.8935 78.9832 96.0927 77.9436 97.2973 76.8159C99.2885 74.9567 101.379 73.4331 101.945 73.4331C103.711 73.4276 109.3 69.5936 109.3 68.389C109.3 68.136 107.622 67.9325 105.576 67.9325C101.962 67.9325 101.731 67.8444 98.0124 65.1271C92.5338 61.1227 86.5821 58.3394 80.4765 56.8487C86.2686 58.1909 91.5767 60.6387 97.1983 64.4891C101.434 67.3879 101.665 67.1129 99.9321 61.2272C98.3149 55.7486 96.2412 52.3218 92.1377 48.3448C79.2388 35.842 60.2122 35.985 47.1318 48.6804C45.4156 50.3415 43.3474 52.7673 42.5333 54.0599C40.8611 56.7277 38.6114 62.7949 38.1658 65.8367L37.8743 67.8664L39.431 66.9368C40.1186 66.5243 41.7907 65.4517 43.4959 64.3241C42.3683 65.1106 41.3177 65.9247 40.3661 66.7443C39.0019 67.927 36.6092 69.7201 35.0415 70.7377L32.1977 72.5805L33.4078 73.5541C34.0679 74.0931 35.4375 74.5332 36.4442 74.5332C37.8193 74.5332 38.7489 75.0282 40.5256 76.7499C40.4651 76.7389 40.3991 76.7334 40.3331 76.7334C39.915 76.7334 39.266 76.3539 38.8809 75.8973C38.4959 75.4353 38.0998 75.1382 38.0008 75.2427C37.7038 75.5343 39.75 82.223 41.0262 85.1493C44.398 92.8777 53.342 100.573 61.4004 102.68ZM404.011 66.2658C400.138 66.8928 400.034 66.8928 395.991 66.2163C392.537 65.6442 390.391 64.6211 387.184 62.0248C384.324 59.7091 382.762 57.2833 381.057 52.5363C379.407 47.9488 379.253 41.4471 380.694 37.2336C381.244 35.6219 381.568 34.1808 381.414 34.0267C380.969 33.5867 376.728 36.4305 372.129 40.2534C367.899 43.7628 364.544 47.6407 360.248 53.9939C358.988 55.8531 357.294 57.8994 356.491 58.5319C354.615 60.0061 351.887 60.0116 350.319 58.5484C348.768 57.1018 349.247 56.2437 351.189 56.9808C354.478 58.2349 356.904 56.2162 360.611 49.1479C365.375 40.0719 370.452 34.4613 378.554 29.3182C388.197 23.2016 397.564 21.4579 407.74 23.9002C414.115 25.4238 417.537 26.9035 422.834 30.4129C428.615 34.2413 432.289 37.8717 438.252 45.622C443.956 53.0368 445.7 54.8025 448.802 56.3042C452.609 58.1469 454.792 57.7673 456.305 55.006C456.844 54.0159 456.905 54.0819 456.921 55.6551C456.938 57.6353 454.864 59.6816 452.84 59.6816C450.793 59.6816 446.283 58.1304 444.506 56.8102C443.571 56.1227 439.737 52.6353 435.986 49.0599C429.567 42.9542 424.242 38.7793 422.867 38.7793C422.471 38.7793 422.41 39.3018 422.685 40.2919C423.604 43.5703 422.905 49.0764 421.079 52.9543C417.652 60.2206 411.459 65.0556 404.011 66.2658ZM494.562 127.014C494.276 127.757 493.225 127.867 487.543 127.751C483.869 127.68 406.668 127.553 315.985 127.476C151.561 127.339 151.104 127.333 151.104 126.239C151.104 125.139 151.517 125.139 322.69 125.139C425.139 125.139 494.402 125.342 494.584 125.639C494.754 125.914 494.743 126.536 494.562 127.014ZM394.484 58.3779C401.838 61.8048 411.206 58.0589 414.434 50.4076C415.733 47.3382 415.502 40.985 413.978 37.8387C409.28 28.1411 396.684 26.4414 389.522 34.5438C387.074 37.3161 386.167 39.3183 385.672 43.0422C384.885 48.9719 388.758 55.7156 394.484 58.3779ZM406.723 53.3009C404.995 54.676 404.06 54.984 401.222 55.1106C397.608 55.2811 396.233 54.9015 393.56 52.9928C389.049 49.7805 388.587 41.5461 392.669 37.1016C396.563 32.8551 404.946 32.7671 408.604 36.9311C412.779 41.6946 411.921 49.1644 406.723 53.3009ZM397.289 48.0093C398.505 49.7475 403.043 49.7585 404.66 48.0258C406.151 46.4306 406.14 43.2348 404.643 41.3261C403.032 39.2853 399.676 39.2853 397.779 41.337C396.194 43.0422 395.969 46.1281 397.289 48.0093ZM179.685 49.2524C183.002 42.5032 185.818 36.8871 185.934 36.7661C186.088 36.612 186.6 41.1005 187.155 47.1622C186.792 43.5208 186.33 40.402 186.022 39.6594C185.312 37.9872 185.296 38.0202 179.438 49.7915C178.64 51.4031 177.87 52.9488 177.161 54.357C177.936 52.7948 178.794 51.0676 179.685 49.2524ZM181.566 110.573L180.268 111.778C179.251 111.69 178.778 111.558 178.882 111.387C179.069 111.085 179.817 110.837 180.543 110.837C180.89 110.837 181.247 110.738 181.566 110.573ZM170.301 79.8192C171.071 80.2593 171.456 80.8864 171.456 81.695C171.456 82.2945 171.671 82.7841 171.94 82.7841C172.303 82.7841 172.705 81.5795 172.931 80.0778C172.689 82.0525 172.254 83.8842 171.929 83.8842C171.671 83.8842 171.456 83.1471 171.456 82.245C171.456 81.1284 171.11 80.3363 170.301 79.8192ZM183.008 101.063C183.008 96.8546 183.173 89.2858 183.371 84.2472C183.173 89.2858 183.008 96.9701 183.008 101.327C183.008 106.596 183.002 108.362 182.562 109.357C182.815 108.114 183.008 104.704 183.008 101.063ZM187.403 49.962C187.513 51.2601 187.623 52.5968 187.733 53.9609C187.942 56.6287 187.881 58.3889 187.474 59.456C187.903 58.0479 187.815 55.2811 187.403 49.962ZM45.1516 80.6664C42.9129 79.1427 41.1912 77.773 41.0977 77.3055C42.3188 78.4771 43.6884 79.6047 45.1516 80.6664ZM75.2839 88.6092C79.8494 87.7291 84.0023 86.1945 88.0068 83.8622C83.8868 86.3265 80.0694 87.6851 75.1959 88.6422C74.7558 88.7302 74.3103 88.8017 73.8537 88.8677C74.3103 88.7907 74.7833 88.7027 75.2839 88.6092ZM55.2617 58.1854C51.9393 59.412 48.518 61.1062 45.4761 63.0149C48.6115 60.9962 51.8843 59.379 55.2617 58.1854ZM64.6292 88.7687C62.759 88.4992 60.8613 88.0812 58.9801 87.5311C59.6017 87.7126 60.2233 87.8666 60.8283 87.9986C62.275 88.3177 63.5181 88.5707 64.6292 88.7687ZM486.481 91.4475C488.808 93.2682 490.398 94.7864 491.481 96.2935C490.409 94.8194 488.83 93.3122 486.481 91.4475ZM173.409 61.7553C173.404 61.7663 173.398 61.7718 173.398 61.7773C173.178 61.9918 172.469 61.0347 171.275 58.9335C172.447 60.9907 173.145 61.9093 173.409 61.7553ZM55.5697 86.3815C54.7282 86.0514 53.8921 85.6994 53.067 85.3198C52.7479 85.1713 52.4124 85.0063 52.0604 84.8248C53.221 85.4024 54.3981 85.9194 55.5697 86.3815Z" fill="#FEFEFE"/>
</svg>
