<?xml version="1.0" encoding="utf-8"?>
<!-- Generator: Adobe Illustrator 16.0.0, SVG Export Plug-In . SVG Version: 6.00 Build 0)  -->
<!DOCTYPE svg PUBLIC "-//W3C//DTD SVG 1.1//EN" "http://www.w3.org/Graphics/SVG/1.1/DTD/svg11.dtd">
<svg version="1.1" id="Ebene_1" xmlns="http://www.w3.org/2000/svg" xmlns:xlink="http://www.w3.org/1999/xlink" x="0px" y="0px"
	 width="170px" height="143.749px" viewBox="0 0 170 143.749" style="enable-background:new 0 0 170 143.749;" xml:space="preserve"
	>
<style type="text/css">
<![CDATA[
	.st0{fill:#B8551F;}
	.st1{fill:#FFFFFF;}
	.st2{clip-path:url(#SVGID_2_);fill:#FFFFFF;}
]]>
</style>
<title>Heine_Logo_HKS81_Rand</title>
<desc>Created with Sketch.</desc>
<g>
	<polygon class="st1" points="85,0 0,143.749 170,143.749 	"/>
	<polygon class="st0" points="22.01,143.749 147.988,143.749 84.998,37.226 	"/>
	<g>
		<defs>
			<rect id="SVGID_1_" width="170" height="143.749"/>
		</defs>
		<clipPath id="SVGID_2_">
			<use xlink:href="#SVGID_1_"  style="overflow:visible;"/>
		</clipPath>
		<path class="st2" d="M83.548,66.248c-1.862,0.499-10.687,1.812-12.931,5.434c-2.248,3.623,0.269,7.339,2.867,8.82l0.531-2.381
			c0,0-5.246-4.721,2.181-7.561l-5.217,24.124l7.388-2.79l-1.662,7.473l2.604-0.837l2.501-10.586l-7.536,2.682l1.923-8.872
			l6.917,2.643c0,0,2.349,0.915,4.307,1.794c2.361,1.058,5.086,2.159,5.458,4.479c0.472,2.967-2.089,4.288-4.479,5.375
			c-2.391,1.088-11.508,3.973-16.102,5.705c-4.914,1.855-9.326,3.455-16.072,7.001c-6.352,3.34-9.284,7.899-9.538,11.51
			c-0.265,3.793,1.282,7.465,6.034,9.18c4.969,1.791,11.428,1.444,15.741,1.444l0.532-2.556l-6.253-0.111
			c0,0-7.53-0.451-9.775-1.794c-2.244-1.337-3.021-2.365-3.421-4.721c-0.396-2.354,1.523-5.704,4.072-7.818
			c2.072-1.721,6.938-4.531,11.404-6.437c4.968-2.118,10.629-3.997,10.629-3.997l-1.847,7.607h2.355l2.173-8.262l1.635-0.651
			c0,0,4.435-1.661,8.377-2.997c0,0,2.689-0.803,5.232-2.711c2.542-1.907,4.162-7.095-0.445-10.296
			c-4.732-3.292-15.18-6.348-16.204-6.872l1.966-9.339l3.029-0.803c0,0,3.786-1.113,4.721-1.066
			c0.935,0.043,1.918,0.531,2.228,0.578c0,0,1.334,0.311,2.184,0.311c0.848,0,2.598-0.402,3.153-0.789
			c0.881-0.619,1.061-1.191,1.058-1.432c0-0.084,1.021,0.16,1.803,0.01c-0.093-0.102-1.663-0.247-0.073-0.6
			c-0.515-0.09-2.014,0.116-2.298,0.214c-0.33,0.111-0.491,0.172-0.698,0.259c-0.137,0.053-1.146,0.531-1.97,0.583
			c-0.732,0.05-0.648-1.261,0.17-1.067c0,0,2.247-0.049,2.84-0.661c0.587-0.614-1.191-2.021-3.647-1.961
			c-2.451,0.061-3.512,0.993-4.448,1.478c-0.935,0.49-1.84,0.721-3.391,1.24"/>
		<polygon class="st2" points="79.527,66.412 76.838,67.16 78.607,58.368 81.191,58.086 		"/>
		<path class="st2" d="M72.455,126.719h-2.398l-1.879,9.442H66.44l1.927,6.151l3.805-6.105h-1.785l1.128-5.308h42.512
			c0,0,2.423,0,3.145-0.015c0.721-0.015,3.75,0.045,4.627,0.971c0.664,0.693,1.07,1.581,0.971,2.423
			c-0.091,0.796-0.237,1.223-0.237,1.223s2.268-1.928,2.004-4.132c-0.257-2.094-2.152-2.975-5.515-3.041
			c-2.247-0.046-9.101-0.016-9.101-0.016H72.123L72.455,126.719z"/>
		<polygon class="st2" points="65.385,112.42 62.34,125.572 65.007,125.544 66.292,120.07 71.457,120.07 70.207,125.475 
			72.776,125.475 75.871,112.42 73.287,112.42 72.033,117.41 66.9,117.41 68.053,112.42 		"/>
		<polygon class="st2" points="78.764,112.537 75.816,125.544 85.855,125.544 86.486,123.229 79.256,123.229 80.014,120.07 
			86.207,120.07 86.837,117.396 80.52,117.396 81.15,114.946 88.382,114.946 88.873,112.511 		"/>
		<polygon class="st2" points="91.189,112.44 88.311,125.473 90.906,125.473 93.857,112.417 		"/>
		<polygon class="st2" points="96.524,112.486 93.646,125.404 96.385,125.404 98.14,116.771 101.929,125.475 104.455,125.475 
			107.334,112.42 104.736,112.42 102.7,121.404 99.05,112.489 		"/>
		<polygon class="st2" points="110.002,112.489 107.193,125.473 117.163,125.473 117.647,123.229 110.423,123.229 111.152,120.044 
			117.442,120.044 118.076,117.516 111.616,117.516 112.178,114.895 119.55,114.895 120.031,112.489 		"/>
	</g>
</g>
</svg>
