<svg xmlns="http://www.w3.org/2000/svg" width="573.187" height="215.823" viewBox="0 0 573.187 215.823">
  <g id="White_Logo" data-name="White Logo" transform="translate(0 0.5)">
    <path id="Union_7" data-name="Union 7" d="M361.327,214.823l6.708-15.919-13-32.2h7.608l9.29,24.951,9.646-24.951h7.071l-20.254,48.119Zm36.489-16.961a15.2,15.2,0,0,1-5.93-5.94,17.806,17.806,0,0,1-2.159-8.881,17.47,17.47,0,0,1,2.219-8.851A15.243,15.243,0,0,1,398,168.25a18.684,18.684,0,0,1,17.135,0,15.243,15.243,0,0,1,6.052,5.94,17.437,17.437,0,0,1,2.219,8.851,17.081,17.081,0,0,1-2.278,8.851,15.694,15.694,0,0,1-6.2,5.97,17.983,17.983,0,0,1-8.66,2.11A17.015,17.015,0,0,1,397.816,197.863Zm3.745-24.562A8.915,8.915,0,0,0,398,177.012a12.636,12.636,0,0,0-1.319,6.029q0,5.286,2.726,8.169a9.04,9.04,0,0,0,6.86,2.881,10.255,10.255,0,0,0,4.945-1.246,9.574,9.574,0,0,0,3.745-3.745,11.936,11.936,0,0,0,1.437-6.059,12.187,12.187,0,0,0-1.378-6.029,9.241,9.241,0,0,0-3.656-3.712,10.032,10.032,0,0,0-4.912-1.249A9.887,9.887,0,0,0,401.561,173.3ZM271.833,197.863a15.2,15.2,0,0,1-5.93-5.94,17.772,17.772,0,0,1-2.159-8.881,17.47,17.47,0,0,1,2.219-8.851,15.243,15.243,0,0,1,6.052-5.94,18.684,18.684,0,0,1,17.135,0,15.243,15.243,0,0,1,6.052,5.94,17.437,17.437,0,0,1,2.219,8.851,17.081,17.081,0,0,1-2.278,8.851,15.694,15.694,0,0,1-6.2,5.97,17.983,17.983,0,0,1-8.66,2.11A17.015,17.015,0,0,1,271.833,197.863Zm3.745-24.562a8.915,8.915,0,0,0-3.564,3.712,12.635,12.635,0,0,0-1.319,6.029q0,5.286,2.726,8.169a9.04,9.04,0,0,0,6.86,2.881,10.255,10.255,0,0,0,4.945-1.246,9.574,9.574,0,0,0,3.745-3.745,11.936,11.936,0,0,0,1.437-6.059,12.187,12.187,0,0,0-1.378-6.029,9.241,9.241,0,0,0-3.656-3.712,10.032,10.032,0,0,0-4.912-1.249A9.887,9.887,0,0,0,275.578,173.3Zm-60.29,24.5a15.335,15.335,0,0,1-5.63-6.059,18.477,18.477,0,0,1-2.07-8.821,17.957,17.957,0,0,1,2.07-8.732,15.079,15.079,0,0,1,5.63-5.911,15.32,15.32,0,0,1,7.941-2.11,15.553,15.553,0,0,1,6.379,1.4,13.019,13.019,0,0,1,5,3.712v-15.8h6.893v43.959h-6.893v-4.932a12.722,12.722,0,0,1-4.645,3.92,14.473,14.473,0,0,1-6.8,1.546A14.859,14.859,0,0,1,215.288,197.8Zm4.4-24.473a9.67,9.67,0,0,0-3.686,3.742,11.6,11.6,0,0,0-1.408,5.851,12.092,12.092,0,0,0,1.408,5.94,9.885,9.885,0,0,0,3.715,3.89,9.727,9.727,0,0,0,9.8.03,9.763,9.763,0,0,0,3.685-3.831,11.923,11.923,0,0,0,1.408-5.911,11.764,11.764,0,0,0-1.408-5.881,9.836,9.836,0,0,0-3.685-3.8,9.676,9.676,0,0,0-4.912-1.309A9.861,9.861,0,0,0,219.692,173.33Zm-42.083,24.533a15.062,15.062,0,0,1-5.874-5.94,18,18,0,0,1-2.126-8.881,18.421,18.421,0,0,1,2.067-8.881,14.484,14.484,0,0,1,5.812-5.911,17.445,17.445,0,0,1,8.6-2.08,16.941,16.941,0,0,1,8.327,2.021,14.305,14.305,0,0,1,5.693,5.673,16.972,16.972,0,0,1,2.037,8.406,20.779,20.779,0,0,1-.241,3.326H176.68a9.04,9.04,0,0,0,2.937,6.3,9.3,9.3,0,0,0,6.471,2.377q5.513,0,7.79-4.576h7.371a14.775,14.775,0,0,1-5.423,7.4,16.008,16.008,0,0,1-9.738,2.881A16.951,16.951,0,0,1,177.609,197.863Zm2.126-23.761a9.284,9.284,0,0,0-3,6.029h18.276a7.68,7.68,0,0,0-2.7-6,9.7,9.7,0,0,0-6.53-2.258A8.827,8.827,0,0,0,179.735,174.1Zm-34.244,24.473a12.205,12.205,0,0,1-4.882-3.8,9.4,9.4,0,0,1-1.919-5.377h7.071a4.769,4.769,0,0,0,2.008,3.478,7.332,7.332,0,0,0,4.582,1.394,7.774,7.774,0,0,0,4.463-1.1,3.309,3.309,0,0,0,1.589-2.822,2.9,2.9,0,0,0-1.767-2.733,33.33,33.33,0,0,0-5.6-1.961,53.854,53.854,0,0,1-6.052-1.961,10.575,10.575,0,0,1-4.042-2.911,7.572,7.572,0,0,1-1.711-5.166,8.012,8.012,0,0,1,1.559-4.783,10.352,10.352,0,0,1,4.463-3.415,16.777,16.777,0,0,1,6.682-1.249,13.892,13.892,0,0,1,9.079,2.822,10.107,10.107,0,0,1,3.685,7.694h-6.834a4.8,4.8,0,0,0-1.8-3.5,6.746,6.746,0,0,0-4.374-1.309,7.129,7.129,0,0,0-4.134,1.012,3.114,3.114,0,0,0-1.437,2.673,2.876,2.876,0,0,0,.959,2.2,6.793,6.793,0,0,0,2.337,1.4q1.375.5,4.074,1.276a44.642,44.642,0,0,1,5.9,1.932,10.963,10.963,0,0,1,3.985,2.881,7.583,7.583,0,0,1,1.737,5.05,8.414,8.414,0,0,1-1.559,4.988,10.315,10.315,0,0,1-4.4,3.448,16.538,16.538,0,0,1-6.679,1.246A16.725,16.725,0,0,1,145.491,198.575Zm-72.714-.712a14.848,14.848,0,0,1-5.723-5.94,20.112,20.112,0,0,1,0-17.762,14.667,14.667,0,0,1,5.723-5.911,16.7,16.7,0,0,1,8.39-2.08,16.568,16.568,0,0,1,9.916,2.822,13.893,13.893,0,0,1,5.3,8.05H89.016a7.715,7.715,0,0,0-2.875-3.8,8.536,8.536,0,0,0-4.974-1.368,8.312,8.312,0,0,0-6.682,2.94Q72,177.756,72,183.042t2.486,8.258a8.266,8.266,0,0,0,6.682,2.97q5.934,0,7.849-5.169h7.371a14.631,14.631,0,0,1-5.393,7.931,16,16,0,0,1-9.827,2.94A16.477,16.477,0,0,1,72.777,197.863Zm-37.748,0a15.23,15.23,0,0,1-5.934-5.94,17.805,17.805,0,0,1-2.156-8.881,17.437,17.437,0,0,1,2.219-8.851,15.256,15.256,0,0,1,6.049-5.94,17.708,17.708,0,0,1,8.571-2.08,17.7,17.7,0,0,1,8.568,2.08,15.243,15.243,0,0,1,6.052,5.94,17.469,17.469,0,0,1,2.215,8.851,17.11,17.11,0,0,1-2.275,8.851,15.7,15.7,0,0,1-6.2,5.97,17.97,17.97,0,0,1-8.657,2.11A17.006,17.006,0,0,1,35.029,197.863ZM38.773,173.3a8.942,8.942,0,0,0-3.567,3.712,12.675,12.675,0,0,0-1.315,6.029q0,5.286,2.726,8.169a9.04,9.04,0,0,0,6.86,2.881,10.233,10.233,0,0,0,4.941-1.246,9.56,9.56,0,0,0,3.748-3.745,11.969,11.969,0,0,0,1.437-6.059,12.223,12.223,0,0,0-1.378-6.029,9.262,9.262,0,0,0-3.656-3.712,10.044,10.044,0,0,0-4.915-1.249A9.865,9.865,0,0,0,38.773,173.3Zm397.183,25.007a11.658,11.658,0,0,1-4.856-4.75,15.333,15.333,0,0,1-1.767-7.605V166.7H436.1v18.24q0,4.4,2.219,6.741a7.918,7.918,0,0,0,6.052,2.347,8.025,8.025,0,0,0,6.082-2.347q2.245-2.344,2.245-6.741V166.7h6.83v32.734H452.7v-3.863a11.053,11.053,0,0,1-4.223,3.181,13.514,13.514,0,0,1-5.545,1.157A14.883,14.883,0,0,1,435.956,198.308Zm-327.376,0a11.632,11.632,0,0,1-4.852-4.75,15.3,15.3,0,0,1-1.77-7.605V166.7h6.771v18.24q0,4.4,2.219,6.741A7.918,7.918,0,0,0,117,194.032a8.025,8.025,0,0,0,6.082-2.347q2.245-2.344,2.245-6.741V166.7h6.834v32.734h-6.834v-3.863a11.053,11.053,0,0,1-4.223,3.181,13.509,13.509,0,0,1-5.541,1.157A14.888,14.888,0,0,1,108.58,198.308Zm220.358,1.131v-18.3q0-4.4-2.215-6.741a7.935,7.935,0,0,0-6.052-2.347,8.028,8.028,0,0,0-6.082,2.347q-2.245,2.349-2.248,6.741v18.3h-6.83V166.7h6.83v3.745a11.3,11.3,0,0,1,4.285-3.148,13.76,13.76,0,0,1,5.541-1.131,14.888,14.888,0,0,1,6.982,1.605,11.451,11.451,0,0,1,4.823,4.75,15.509,15.509,0,0,1,1.737,7.605v19.308ZM.4,199.439V158.153H24.9v5.522H7.226v12.181H21.009v5.525H7.226v18.058Zm342.151-81.49a42.274,42.274,0,0,1-15.589-16.473,47.98,47.98,0,0,1-5.541-22.855,49.709,49.709,0,0,1,5.274-22.927A40.951,40.951,0,0,1,341.848,39.3c6.553-4.035,14.373-6.082,23.244-6.082,8.986,0,16.832,2.047,23.329,6.082a41.126,41.126,0,0,1,15.068,16.394,49.67,49.67,0,0,1,5.278,22.927v5.96H336.4a34.551,34.551,0,0,0,4.694,12.754,27.994,27.994,0,0,0,10.19,9.768,29.774,29.774,0,0,0,14.847,3.62c5.934,0,10.971-1.325,14.976-3.943a27.931,27.931,0,0,0,9.431-10.186l.218-.4h15.77l-.405,1.048a43.382,43.382,0,0,1-14.528,19.278c-6.619,4.984-15.246,7.509-25.637,7.509A44.512,44.512,0,0,1,342.547,117.949Zm3.105-64.213A32.45,32.45,0,0,0,336.6,70.931H393.59a31.3,31.3,0,0,0-8.967-17.188c-4.908-4.793-11.478-7.219-19.532-7.219S350.5,48.95,345.652,53.736ZM214.57,117.949a42.284,42.284,0,0,1-15.592-16.473,47.978,47.978,0,0,1-5.538-22.855,49.749,49.749,0,0,1,5.271-22.927A40.959,40.959,0,0,1,213.871,39.3c6.553-4.035,14.373-6.082,23.24-6.082,8.99,0,16.835,2.047,23.333,6.082a41.149,41.149,0,0,1,15.068,16.394,49.711,49.711,0,0,1,5.278,22.927v5.96H208.422a34.551,34.551,0,0,0,4.694,12.754,27.968,27.968,0,0,0,10.189,9.768,29.774,29.774,0,0,0,14.847,3.62c5.934,0,10.971-1.325,14.973-3.943a27.911,27.911,0,0,0,9.435-10.186l.218-.4h15.767l-.405,1.048a43.357,43.357,0,0,1-14.528,19.278c-6.619,4.984-15.243,7.509-25.634,7.509A44.512,44.512,0,0,1,214.57,117.949Zm3.1-64.213a32.48,32.48,0,0,0-9.046,17.195h56.987a31.281,31.281,0,0,0-8.97-17.188c-4.905-4.793-11.475-7.219-19.532-7.219S222.521,48.95,217.672,53.736ZM113.983,117.6a42.23,42.23,0,0,1-15.589-16.473,47.968,47.968,0,0,1-5.541-22.851,49.709,49.709,0,0,1,5.274-22.927,40.937,40.937,0,0,1,15.157-16.4c6.55-4.035,14.373-6.082,23.24-6.082,8.986,0,16.835,2.047,23.333,6.085a41.059,41.059,0,0,1,15.068,16.394A49.711,49.711,0,0,1,180.2,78.275v5.96H107.835a34.567,34.567,0,0,0,4.691,12.751,28.012,28.012,0,0,0,10.193,9.771,29.77,29.77,0,0,0,14.844,3.62c5.937,0,10.974-1.328,14.979-3.943a27.931,27.931,0,0,0,9.431-10.186l.218-.4h15.767l-.405,1.048a43.334,43.334,0,0,1-14.528,19.278c-6.623,4.981-15.243,7.509-25.634,7.509A44.513,44.513,0,0,1,113.983,117.6Zm3.1-64.209a32.458,32.458,0,0,0-9.046,17.195h56.987a31.3,31.3,0,0,0-8.97-17.191c-4.905-4.79-11.475-7.216-19.532-7.216S121.931,48.6,117.085,53.39ZM72.012,123.217c0-11.363-2.538-21.206-7.539-29.253a51.205,51.205,0,0,0-20.4-18.751,63.307,63.307,0,0,0-29.181-6.675h-.382v54.389H0V.287H14.511V54.679h.382A63.267,63.267,0,0,0,44.074,48a51.18,51.18,0,0,0,20.4-18.751c5-8.047,7.539-17.89,7.539-29.25H85.871c0,13.987-3.24,26.29-9.626,36.568A64.851,64.851,0,0,1,50.4,60.333c-.867.445-1.747.867-2.631,1.276.883.409,1.764.831,2.631,1.272A64.882,64.882,0,0,1,76.245,86.649c6.385,10.278,9.626,22.581,9.626,36.568Zm364.106-.574H422.371V34.6h14.514V52.737c.363-.752.771-1.559,1.233-2.42a33.437,33.437,0,0,1,5.93-7.707,33.975,33.975,0,0,1,9.824-6.642,33.434,33.434,0,0,1,14.076-2.749h1.635V47.733H467.26a26.359,26.359,0,0,0-16.235,5.119A33.469,33.469,0,0,0,440.538,66.22a43.108,43.108,0,0,0-3.653,17.59v38.833Zm-127.977,0H294.394V0h14.515V122.643Z" transform="translate(103.103)" fill="#fff" stroke="rgba(0,0,0,0)" stroke-miterlimit="10" stroke-width="1"/>
    <path id="Path_7" data-name="Path 7" d="M196.131,123.712a64.744,64.744,0,0,0,25.8-23.724c6.378-10.262,9.609-22.542,9.609-36.5H217.708c0,11.343-2.53,21.165-7.523,29.2A51.113,51.113,0,0,1,189.82,111.4a63.2,63.2,0,0,1-29.13,6.665s22.84,2.345,32.757,6.917c.9-.414,1.8-.819,2.684-1.271" transform="translate(-160.31 -63.484)" fill="#6cbce8"/>
    <path id="Path_8" data-name="Path 8" d="M196.131,88.7c-.881-.45-1.785-.858-2.684-1.271-9.917,4.575-32.757,6.92-32.757,6.92a63.18,63.18,0,0,1,29.128,6.663,51.14,51.14,0,0,1,20.366,18.717c4.993,8.035,7.523,17.859,7.523,29.2h13.834c0-13.963-3.231-26.243-9.609-36.507a64.782,64.782,0,0,0-25.8-23.724" transform="translate(-160.31 -25.927)" fill="#ed6f1e"/>
    <path id="Path_9" data-name="Path 9" d="M160.922,84.734h-.38V98.568h.38a77.538,77.538,0,0,0,32.757-6.917,77.577,77.577,0,0,0-32.757-6.917" transform="translate(-160.542 -30.151)" fill="#fff"/>
  </g>
</svg>
